<svg width="37" height="44" viewBox="0 0 37 44" fill="none" xmlns="http://www.w3.org/2000/svg">
<path d="M4 13L33.5 1L36 2.5V6.5V13L35.5 16L33 19L25 22L33.5 25.5L35.5 28L36 40.5L34.5 43H32.5L4 31.5L1.5 27.5L0.5 17L4 13Z" fill="#BECDC8"/>
<path d="M1 26.8009L0.999999 17.4498C0.999999 15.1413 2.70386 12.6662 4.94419 11.7859L31.5928 1.31437C32.8796 0.808691 33.9742 0.961512 34.7188 1.44885C35.4581 1.93267 36 2.84183 36 4.16181L36 13.5129C36 15.8214 34.2961 18.2965 32.0558 19.1768L5.40723 29.6483C4.12036 30.154 3.0258 30.0012 2.28117 29.5138C1.54189 29.03 1 28.1209 1 26.8009Z" stroke="#211D18" stroke-width="2"/>
<path d="M1 17.1483L0.999999 26.4994C0.999999 28.808 2.70386 31.283 4.94419 32.1633L31.5928 42.6349C32.8796 43.1405 33.9742 42.9877 34.7188 42.5004C35.4581 42.0165 36 41.1074 36 39.7874L36 30.4363C36 28.1278 34.2961 25.6528 32.0558 24.7724L5.40723 14.3009C4.12036 13.7952 3.0258 13.948 2.28117 14.4354C1.54189 14.9192 1 15.8284 1 17.1483Z" stroke="#211D18" stroke-width="2"/>
</svg>
